<svg xmlns="http://www.w3.org/2000/svg" width="18.489" height="11.886" viewBox="0 0 18.489 11.886">
  <g id="eye-open" transform="translate(0 -91.365)">
    <path id="Path_244" data-name="Path 244" d="M18.283,96.6A11.02,11.02,0,0,0,14.4,92.8a9.977,9.977,0,0,0-10.307,0A11.017,11.017,0,0,0,.206,96.6a1.332,1.332,0,0,0,0,1.424,11.014,11.014,0,0,0,3.885,3.8,9.994,9.994,0,0,0,10.307.005,10.946,10.946,0,0,0,3.885-3.8,1.332,1.332,0,0,0,0-1.424ZM7.031,93.774a3.019,3.019,0,0,1,2.213-.923.5.5,0,1,1,0,.991A2.149,2.149,0,0,0,7.1,95.987a.5.5,0,1,1-.991,0A3.019,3.019,0,0,1,7.031,93.774Zm6.7,6.9a8.643,8.643,0,0,1-8.966,0,10.649,10.649,0,0,1-3.441-3.369,10.141,10.141,0,0,1,3.931-3.642,4.509,4.509,0,0,0-.629,2.321,4.452,4.452,0,0,0,1.357,3.266,4.451,4.451,0,0,0,3.266,1.357,4.452,4.452,0,0,0,3.266-1.357,4.451,4.451,0,0,0,1.357-3.266,4.508,4.508,0,0,0-.629-2.321,10.142,10.142,0,0,1,3.931,3.642A10.647,10.647,0,0,1,13.728,100.677Z" transform="translate(0)" fill="#616161"/>
  </g>
</svg>
