<svg id="filter" xmlns="http://www.w3.org/2000/svg" width="21.207" height="21.207" viewBox="0 0 21.207 21.207">
  <path id="Path_262" data-name="Path 262" d="M17.413,0H3.794A3.8,3.8,0,0,0,0,3.794V17.413a3.8,3.8,0,0,0,3.794,3.794H17.413a3.8,3.8,0,0,0,3.794-3.794V3.794A3.8,3.8,0,0,0,17.413,0Zm2.551,17.413a2.554,2.554,0,0,1-2.551,2.551H3.794a2.554,2.554,0,0,1-2.551-2.551V3.794A2.554,2.554,0,0,1,3.794,1.243H17.413a2.554,2.554,0,0,1,2.551,2.551Z" transform="translate(0 0)" fill="#fff"/>
  <path id="Path_263" data-name="Path 263" d="M79.529,81.665H70.066a1.952,1.952,0,0,0-3.7,0H64.888a.621.621,0,1,0,0,1.243h1.477a1.952,1.952,0,0,0,3.7,0h9.463a.621.621,0,1,0,0-1.243ZM68.216,83a.71.71,0,1,1,.71-.71A.71.71,0,0,1,68.216,83Z" transform="translate(-61.605 -77.007)" fill="#fff"/>
  <path id="Path_264" data-name="Path 264" d="M79.529,210.2H78.052a1.952,1.952,0,0,0-3.7,0H64.888a.621.621,0,0,0,0,1.243h9.463a1.952,1.952,0,0,0,3.7,0h1.477a.621.621,0,1,0,0-1.243ZM76.2,211.529a.71.71,0,1,1,.71-.71A.71.71,0,0,1,76.2,211.529Z" transform="translate(-61.605 -200.216)" fill="#fff"/>
  <path id="Path_265" data-name="Path 265" d="M79.529,338.731h-6.8a1.952,1.952,0,0,0-3.7,0H64.888a.621.621,0,0,0,0,1.243h4.139a1.952,1.952,0,0,0,3.7,0h6.8a.621.621,0,0,0,0-1.243Zm-8.651,1.331a.71.71,0,1,1,.71-.71A.711.711,0,0,1,70.878,340.062Z" transform="translate(-61.605 -323.425)" fill="#fff"/>
</svg>
