<svg xmlns="http://www.w3.org/2000/svg" width="18.249" height="17.077" viewBox="0 0 18.249 17.077">
  <g id="like" transform="translate(0.256 -1.576)">
    <path id="Path_241" data-name="Path 241" d="M17.708,6.743c-.259-2.85-2.276-4.917-4.8-4.917A4.771,4.771,0,0,0,8.82,4.182,4.6,4.6,0,0,0,4.83,1.826C2.306,1.826.288,3.893.03,6.743A5.07,5.07,0,0,0,.181,8.612a8.015,8.015,0,0,0,2.456,4.1l6.179,5.608L15.1,12.71a8.016,8.016,0,0,0,2.456-4.1A5.082,5.082,0,0,0,17.708,6.743Zm-.815,1.712A7.33,7.33,0,0,1,14.644,12.2L8.82,17.4,3.095,12.2A7.335,7.335,0,0,1,.845,8.455,4.43,4.43,0,0,1,.7,6.852l.005-.034C.93,4.321,2.663,2.508,4.83,2.508A4,4,0,0,1,8.5,5.072l.314.745.314-.745a4.121,4.121,0,0,1,3.776-2.563c2.166,0,3.9,1.812,4.126,4.341A4.425,4.425,0,0,1,16.892,8.455Z" transform="translate(0)" fill="#616161" stroke="#616161" stroke-width="0.5"/>
  </g>
</svg>
